<?xml version="1.0" encoding="UTF-8" standalone="no"?><!DOCTYPE svg PUBLIC "-//W3C//DTD SVG 1.1//EN" "http://www.w3.org/Graphics/SVG/1.1/DTD/svg11.dtd"><svg width="100%" height="100%" viewBox="0 0 78 63" version="1.1" xmlns="http://www.w3.org/2000/svg" xmlns:xlink="http://www.w3.org/1999/xlink" xml:space="preserve" xmlns:serif="http://www.serif.com/" style="fill-rule:evenodd;clip-rule:evenodd;stroke-linejoin:round;stroke-miterlimit:2;"><path d="M58.794,9.209c0,-5.035 4.083,-9.117 9.117,-9.117c5.035,-0 9.117,4.082 9.117,9.117c0,5.034 -4.08,9.119 -9.117,9.119c-5.036,-0 -9.117,-4.083 -9.117,-9.119Zm9.117,32.105c3.419,-0 6.446,1.528 8.316,3.879l0,-28.259c-2.091,2.191 -5.081,3.564 -8.402,3.564c-3.321,0 -6.059,-1.258 -8.133,-3.29l-11.334,9.153c0.9,1.568 1.413,3.37 1.413,5.288c-0,1.251 -0.22,2.45 -0.619,3.57l10.748,-9.202l0.034,18.558l-0.035,0.256c1.885,-2.144 4.772,-3.517 8.012,-3.517Zm-20.835,-16.74l11.205,-9.049c-1.2,-1.755 -1.901,-3.857 -1.901,-6.122c0.001,-0.363 0.019,-0.723 0.055,-1.078l-0.981,0.788l-14.55,11.859c2.452,0.525 4.601,1.818 6.172,3.602Zm-37.947,-6.246c5.034,-0 9.117,-4.083 9.117,-9.119c-0,-5.037 -4.083,-9.117 -9.117,-9.117c-5.035,-0 -9.117,4.082 -9.117,9.117c-0,5.034 4.08,9.119 9.117,9.119Zm0.045,2.17c-3.316,0 -6.298,-1.366 -8.376,-3.544l0,28.255c1.871,-2.36 4.904,-3.895 8.331,-3.895c3.182,-0 6.026,1.324 7.913,3.403l0.005,-0.003l0.11,-18.441l10.573,8.931c-0.396,-1.114 -0.614,-2.309 -0.614,-3.555c0,-5.164 3.706,-9.489 8.691,-10.638l-15.263,-12.711l-0.093,0.003c0.052,0.42 0.081,0.845 0.081,1.275c-0,6.032 -5.085,10.92 -11.358,10.92Zm58.737,23.454c-2.653,0 -5.041,1.134 -6.706,2.945l-14.71,-10.726c0.013,-0.031 0.025,-0.061 0.034,-0.092c0.002,-0.005 0.004,-0.009 0.004,-0.012c0.637,-1.244 0.999,-2.654 0.999,-4.148c-0,-5.036 -4.081,-9.118 -9.117,-9.118c-5.618,-0 -8.962,5.194 -9.117,9.118c-0.079,2.002 0.677,3.523 0.948,4.054c0.027,0.068 0.058,0.139 0.09,0.209l-14.504,10.71c-1.665,-1.807 -4.052,-2.94 -6.703,-2.94c-5.037,0 -9.117,4.083 -9.117,9.117c-0,5.035 4.08,9.119 9.117,9.119c5.036,0 9.117,-4.082 9.117,-9.119c-0,-1.596 -0.411,-3.096 -1.132,-4.401l14.43,-10.656c2.432,2.978 6.977,6.308 6.977,6.308c-0,-0 4.441,-3.636 6.741,-6.338l14.661,10.692c-0.718,1.303 -1.129,2.802 -1.129,4.395c0,5.037 4.083,9.119 9.117,9.119c5.035,0 9.117,-4.082 9.117,-9.119c0,-5.036 -4.08,-9.117 -9.117,-9.117Z" style="fill:url(#_Linear1);fill-rule:nonzero;"/><defs><linearGradient id="_Linear1" x1="0" y1="0" x2="1" y2="0" gradientUnits="userSpaceOnUse" gradientTransform="matrix(64.215,-64.2168,64.2168,64.215,6.4125,63.2484)"><stop offset="0" style="stop-color:#1c3bdc;stop-opacity:1"/><stop offset="1" style="stop-color:#dc5de0;stop-opacity:1"/></linearGradient></defs></svg>
