<?xml version="1.0" encoding="UTF-8" standalone="no"?>
<!DOCTYPE svg PUBLIC "-//W3C//DTD SVG 1.1//EN" "http://www.w3.org/Graphics/SVG/1.1/DTD/svg11.dtd">
<svg width="100%" height="100%" viewBox="0 0 534 450" version="1.1" xmlns="http://www.w3.org/2000/svg" xmlns:xlink="http://www.w3.org/1999/xlink" xml:space="preserve" xmlns:serif="http://www.serif.com/" style="fill-rule:evenodd;clip-rule:evenodd;stroke-linejoin:round;stroke-miterlimit:2;">
    <g transform="matrix(1,0,0,1,53.065,52.51)">
        <path d="M326.57,50.65C326.57,22.68 349.25,0 377.22,0C405.19,0 427.87,22.68 427.87,50.65C427.87,78.62 405.2,101.31 377.22,101.31C349.24,101.31 326.57,78.63 326.57,50.65ZM377.22,229.01C396.21,229.01 413.03,237.5 423.42,250.56L423.42,93.57C411.8,105.74 395.19,113.37 376.74,113.37C358.29,113.37 343.08,106.38 331.56,95.09L268.59,145.94C273.59,154.65 276.44,164.66 276.44,175.32C276.44,182.27 275.22,188.93 273,195.15L332.71,144.03L332.9,247.13L332.71,248.55C343.18,236.64 359.22,229.01 377.22,229.01ZM261.47,136.01L323.72,85.74C317.05,75.99 313.16,64.31 313.16,51.73C313.16,49.71 313.26,47.71 313.46,45.74L308.01,50.12L227.18,116C240.8,118.92 252.74,126.1 261.47,136.01ZM50.65,101.31C78.62,101.31 101.3,78.63 101.3,50.65C101.3,22.67 78.62,0 50.65,0C22.68,0 0,22.68 0,50.65C0,78.62 22.67,101.31 50.65,101.31ZM50.9,113.37C32.48,113.37 15.91,105.78 4.37,93.68L4.37,250.65C14.76,237.54 31.61,229.01 50.65,229.01C68.33,229.01 84.13,236.37 94.61,247.92L94.64,247.9L95.25,145.45L153.99,195.07C151.79,188.88 150.58,182.24 150.58,175.32C150.58,146.63 171.17,122.6 198.86,116.22L114.07,45.6L113.55,45.62C113.84,47.95 114,50.31 114,52.7C114,86.21 85.75,113.37 50.9,113.37ZM377.22,243.67C362.48,243.67 349.21,249.97 339.96,260.03L258.24,200.44C258.31,200.27 258.38,200.1 258.43,199.93C258.44,199.9 258.45,199.88 258.45,199.86C261.99,192.95 264,185.12 264,176.82C264,148.84 241.33,126.16 213.35,126.16C182.14,126.16 163.56,155.02 162.7,176.82C162.26,187.94 166.46,196.39 167.97,199.34C168.12,199.72 168.29,200.11 168.47,200.5L87.89,260C78.64,249.96 65.38,243.67 50.65,243.67C22.67,243.67 0,266.35 0,294.32C0,322.29 22.67,344.98 50.65,344.98C78.63,344.98 101.3,322.3 101.3,294.32C101.3,285.45 99.02,277.12 95.01,269.87L175.18,210.67C188.69,227.21 213.94,245.71 213.94,245.71C213.94,245.71 238.61,225.51 251.39,210.5L332.84,269.9C328.85,277.14 326.57,285.47 326.57,294.32C326.57,322.3 349.25,344.98 377.22,344.98C405.19,344.98 427.87,322.3 427.87,294.32C427.87,266.34 405.2,243.67 377.22,243.67Z" style="fill:url(#_Linear1);fill-rule:nonzero;"/>
    </g>
    <defs>
        <linearGradient id="_Linear1" x1="0" y1="0" x2="1" y2="0" gradientUnits="userSpaceOnUse" gradientTransform="matrix(356.75,-356.76,356.76,356.75,35.56,350.87)"><stop offset="0" style="stop-color:rgb(74,155,127);stop-opacity:1"/><stop offset="1" style="stop-color:rgb(58,74,82);stop-opacity:1"/></linearGradient>
    </defs>
</svg>
